<?xml version="1.0" encoding="UTF-8"?>
<svg id="Layer_1" data-name="Layer 1" xmlns="http://www.w3.org/2000/svg" version="1.1" viewBox="0 0 340 280">
  <defs>
    <style>
      .cls-1 {
        fill: #ffe9dc;
      }

      .cls-1, .cls-2, .cls-3, .cls-4, .cls-5, .cls-6, .cls-7, .cls-8, .cls-9, .cls-10, .cls-11, .cls-12, .cls-13, .cls-14, .cls-15, .cls-16, .cls-17, .cls-18, .cls-19, .cls-20, .cls-21, .cls-22, .cls-23, .cls-24, .cls-25 {
        stroke-width: 0px;
      }

      .cls-2 {
        fill: #2b1706;
      }

      .cls-3 {
        fill: #5872c5;
      }

      .cls-4 {
        fill: #bc5651;
      }

      .cls-5 {
        fill: #9cf;
      }

      .cls-6 {
        fill: #69f;
      }

      .cls-7 {
        fill: #c2fcff;
      }

      .cls-8 {
        fill: #67cccd;
      }

      .cls-9 {
        fill: #632a00;
      }

      .cls-10 {
        fill: #adc1f2;
        opacity: .3;
      }

      .cls-10, .cls-26, .cls-27 {
        isolation: isolate;
      }

      .cls-11 {
        fill: #7d92be;
      }

      .cls-12 {
        fill: #ff6039;
      }

      .cls-13 {
        fill: #399;
      }

      .cls-14 {
        fill: #f2afe2;
      }

      .cls-15 {
        fill: #f9bea7;
      }

      .cls-28 {
        stroke: #000;
        stroke-miterlimit: 10;
        stroke-width: .38px;
      }

      .cls-28, .cls-26, .cls-21 {
        fill: #fff;
      }

      .cls-16 {
        fill: #1d2633;
      }

      .cls-17 {
        fill: #442c0c;
      }

      .cls-26 {
        font-family: MyriadPro-Semibold, 'Myriad Pro';
        font-size: 3.1px;
        font-weight: 600;
      }

      .cls-18 {
        fill: #f0a38f;
      }

      .cls-19 {
        fill: #ff737a;
      }

      .cls-20 {
        fill: #d47b77;
      }

      .cls-22 {
        fill: #f8d2ab;
      }

      .cls-23 {
        fill: #4e86f9;
      }

      .cls-24 {
        fill: #3b4858;
      }

      .cls-25 {
        fill: #1e2633;
      }
    </style>
  </defs>
  <g>
    <polygon class="cls-18" points="179.7 113.84 180.92 122.36 192.39 114.62 189.86 108.73 179.7 113.84"/>
    <path class="cls-28" d="M231.89,93.89s-6.74,1.83-12.04,13.86c-5.3,12.02-14.3,31.68-14.3,31.68l-9.24-28.52-22.47,13.32s8.67,47.99,27.46,54.53c18.79,6.54,30.65-27.47,30.65-27.47l-.06-57.4h0Z"/>
    <path class="cls-25" d="M180.33,131.8s-.08-.03-.11-.07c-.06-.07-.04-.18.04-.23l16.57-12.15c.07-.06.18-.04.23.04.06.07.04.18-.04.23l-16.57,12.15s-.08.04-.13.03h0Z"/>
    <path class="cls-25" d="M180.11,127.94c-1.31-.2-2.2-1.44-1.99-2.74.2-1.3,1.44-2.2,2.74-1.99s2.2,1.44,1.99,2.74c-.2,1.31-1.44,2.2-2.74,1.99ZM180.81,123.54c-1.12-.18-2.18.59-2.36,1.71-.18,1.12.59,2.18,1.71,2.36s2.18-.59,2.36-1.71c.18-1.12-.59-2.18-1.71-2.36Z"/>
    <path class="cls-8" d="M184.25,77.87l7.54-11.2s1.46.5,1.54,2.67c.07,2.16-4.43,10.69-4.43,10.69l-4.64-2.16h0Z"/>
    <path class="cls-8" d="M198.45,81.62s-2.62,7.62-4.07,13.85c-1.41,6.06-3.08,7.01-3.68,8.67-.51,1.42-.03,2.75-.03,2.75,0,0,1.26-.74,1.69.45.39,1.06-.93,1.68-.93,1.68l-12.33,6.5s-1.75,1.04-2.2-.32c-.45-1.36.94-2.16.94-2.16,0,0,.4-2.55-1.13-4.29-1.53-1.74-5.19-7.31-5.72-14.01-.52-6.71-.43-11.55,1.48-13.01,1.09-.84,2.67-.28,2.67-.28,0,0,.94-1.38,2.22-1.57,1.28-.2,1.68.22,1.68.22,0,0,2.1-2.74,3.5-2.97,1.4-.22,8.42,3.73,8.42,3.73,0,0,.33,1.06-.67,1.65-.99.59-2.23.36-2.23.36l3.1,4.62s1.48-4.29,3.08-5.56c1.6-1.27,4.21-.32,4.21-.32h0Z"/>
    <g>
      <g>
        <path class="cls-10" d="M193.4,67.2v-.5h-6.81v.5c0,.6-.31,1.14-.82,1.46-.54.34-.9.94-.9,1.62v14.08c0,.55.45,1,1,1h8.25c.55,0,1-.45,1-1v-14.08c0-.68-.36-1.28-.9-1.62-.5-.32-.82-.87-.82-1.46h0Z"/>
        <path class="cls-7" d="M195.11,71.11v13.25c0,.55-.45,1-1,1h-8.25c-.55,0-1-.45-1-1v-13.25h10.24Z"/>
        <g>
          <rect class="cls-21" x="185.5" y="64.2" width="8.98" height="2.45" rx=".42" ry=".42"/>
          <path class="cls-11" d="M194.07,66.74h-8.15c-.28,0-.51-.23-.51-.51v-1.62c0-.28.23-.51.51-.51h8.15c.28,0,.51.23.51.51v1.62c0,.28-.23.51-.51.51ZM185.92,64.29c-.18,0-.33.15-.33.33v1.62c0,.18.15.33.33.33h8.15c.18,0,.33-.15.33-.33v-1.62c0-.18-.15-.33-.33-.33h-8.15Z"/>
        </g>
        <path class="cls-11" d="M194.12,85.45h-8.25c-.6,0-1.09-.49-1.09-1.09v-14.08c0-.7.35-1.33.94-1.7.48-.3.77-.82.77-1.38v-.59h7v.59c0,.56.29,1.08.77,1.38.59.37.94,1.01.94,1.7v14.08c0,.6-.49,1.09-1.09,1.09h0ZM186.68,66.8v.4c0,.63-.32,1.2-.86,1.54-.54.34-.86.91-.86,1.55v14.08c0,.5.4.9.9.9h8.25c.5,0,.9-.4.9-.9v-14.08c0-.63-.32-1.21-.86-1.55-.54-.34-.86-.91-.86-1.54v-.4h-6.63,0Z"/>
        <path class="cls-3" d="M195.11,64.2v1.56h-10.24v-1.56c0-.26.21-.47.47-.47h9.3c.26,0,.47.21.47.47Z"/>
      </g>
      <rect class="cls-3" x="185.27" y="72.81" width="9.52" height="5.96"/>
      <path class="cls-21" d="M194.26,80.03c-.05,0-.09-.04.29-.09v-8.14c-.38-.05-.34-.09-.29-.09s.09.04.09.09v8.14c0,.05-.04.09-.09.09Z"/>
    </g>
    <path class="cls-8" d="M182.54,77.13c1.4-.22,8.42,3.73,8.42,3.73,0,0,.33,1.06-.67,1.65-.99.59-2.23.36-2.23.36,0,0-6.93-5.52-5.53-5.74h0Z"/>
    <path class="cls-25" d="M208.09,146.1l-2.62-6.46c-.04-.08,0-.19.09-.22h0c.08-.04.19,0,.22.09l2.62,6.46c.04.08,0,.19-.09.22h0c-.08.04-.19,0-.22-.09Z"/>
    <path class="cls-13" d="M179,112.44c.83-.52,1.69-.99,2.55-1.44.87-.45,1.74-.88,2.62-1.29.88-.41,1.78-.8,2.68-1.17.9-.37,1.81-.73,2.75-1.02-.83.52-1.69.99-2.55,1.44-.87.45-1.74.88-2.62,1.29-.88.41-1.78.8-2.68,1.17-.9.37-1.81.73-2.75,1.02h0Z"/>
    <path class="cls-13" d="M191.01,88.06c-.16.77-.41,1.52-.72,2.24-.16.36-.34.71-.55,1.06-.21.34-.46.66-.74.96-.28.29-.56.55-.85.82-.28.27-.55.54-.82.82-.53.55-1.04,1.13-1.49,1.75-.46.61-.87,1.26-1.21,1.94-.35.68-.62,1.39-.83,2.13-.4,1.47-.47,3.03-.31,4.59-.41-1.51-.48-3.14-.14-4.7.16-.78.44-1.54.77-2.26.34-.72.77-1.4,1.24-2.05.48-.63,1.01-1.23,1.57-1.79.56-.55,1.17-1.07,1.74-1.57.27-.25.51-.54.74-.85.22-.31.43-.63.61-.97.37-.67.7-1.38.98-2.11h0Z"/>
    <path class="cls-13" d="M188.07,82.87c-.5.02-.99-.02-1.48-.07-.48-.06-.97-.13-1.44-.23-.47-.1-.95-.21-1.41-.36-.47-.14-.93-.3-1.38-.52.5-.02.99.02,1.48.07.48.06.97.13,1.44.23.47.1.95.22,1.41.36.47.14.93.3,1.38.52Z"/>
    <path class="cls-13" d="M175.14,81.45c.51.48.91,1.06,1.26,1.67.34.61.61,1.27.82,1.94l.14.51c.05.17.07.34.11.52.08.34.12.7.17,1.05.03.18.03.35.05.53,0,.18.02.35.03.53,0,.35,0,.7,0,1.06,0,.18-.02.36-.05.54-.02.18-.06.36-.09.54-.08.36-.2.72-.42,1.05-.03.04-.06.08-.08.12l-.1.11c-.07.08-.16.14-.24.21-.18.11-.39.2-.61.21-.44.03-.81-.14-1.13-.34-.62-.42-1.06-1.01-1.41-1.63-.33-.63-.56-1.31-.61-2,.18.67.47,1.29.86,1.85.19.28.4.54.64.78.23.23.49.45.76.61.14.07.28.14.42.18.14.05.28.06.41.04.13,0,.24-.07.35-.14.05-.05.1-.08.15-.14l.07-.08.06-.09c.15-.25.25-.56.32-.87.03-.16.06-.32.07-.49.02-.16.03-.33.04-.5.02-.34.02-.68.02-1.01-.02-.34-.03-.68-.05-1.01-.05-.68-.17-1.34-.32-2.01-.17-.66-.37-1.31-.64-1.94-.27-.63-.59-1.24-1-1.8h0Z"/>
    <path class="cls-13" d="M179.04,80.1c.48.4.9.88,1.29,1.38.38.5.73,1.03,1.04,1.58.31.55.57,1.14.8,1.73.22.6.4,1.2.54,1.83.12.63.18,1.3.07,1.96-.06.33-.16.66-.32.97-.16.31-.4.59-.71.77-.3.2-.67.28-1.01.26-.35-.02-.67-.13-.96-.29-.58-.32-1.01-.81-1.35-1.33.44.44.92.85,1.48,1.07.54.23,1.17.23,1.59-.09.43-.32.66-.87.73-1.44.08-.57.03-1.17-.09-1.76-.25-1.19-.66-2.35-1.17-3.47-.26-.55-.55-1.1-.87-1.63-.32-.53-.66-1.05-1.05-1.54h0Z"/>
    <polygon class="cls-8" points="184.12 79.28 183.57 81.74 188.07 82.87 184.12 79.28"/>
    <g class="cls-27">
      <text class="cls-26" transform="translate(185.7 76.62)"><tspan x="0" y="0">Vaccin</tspan></text>
    </g>
  </g>
  <path class="cls-2" d="M253.91,50.35c1.45,4.6,3.77,8.89,5.25,13.48,2.38,7.4,2.51,15.31,2.62,23.08.02,1.69.03,3.45-.69,4.98-.67,1.41-1.9,2.49-3.23,3.3-4.1,2.52-9.34,2.86-13.93,1.41-4.59-1.45-8.54-4.58-11.48-8.39-2.13-2.75-3.79-5.92-4.46-9.33-1.16-5.86.65-11.92,3.21-17.32s5.88-10.44,8.03-16.01c1.87-4.84,2.9-10.13,6.02-14.28.65-.87,3.97-6.2,4.69-6.32,2.43-.41,1.93,4.52,1.89,5.63-.2,6.64.07,13.4,2.08,19.78h0Z"/>
  <path class="cls-9" d="M55.24,96.53c-9.38,5.85-7.21,13.7-14.36,18.21-7.14,4.5-18.75,4.62-25.1,17.11-6.35,12.49-1.82,27.24,10.55,35.02,12.37,7.78,26.36,6.4,33.07-2.71,5.13-6.97,5.12-17.71,8.95-23.01,3.83-5.31,10.38-10.67,14.18-18.61,3.8-7.95-2.22-29.3-2.22-29.3,0,0-15.17-2.89-25.07,3.3h0Z"/>
  <path class="cls-18" d="M283.71,54.66l1.7,28.49s-3.98,10.44-18.61,9.46c-8.83-.59-8.61-7.57-8.61-7.57l1.72-19.46,23.8-10.92h0Z"/>
  <path class="cls-20" d="M259.53,70.14l-.41,5.07s10.68,2.22,15.49-6.9c5.17-9.77-15.08,1.82-15.08,1.82h0Z"/>
  <path class="cls-28" d="M329.01,279.99h-105.59c.42-22.39,1.9-64.21,1.84-89.62-.03-12.88-2.45-47.34-2.22-59.03.23-11.69,9.44-37.97,9.44-37.97l25.7-8.34c.9,13.38,20.13,14.64,27.22-1.89l31.62,11.37.58,50.46s-2.38,40.97-1.44,48.57c.94,7.6,3.1,17.83,7.66,35.5,2.53,9.81,5.18,40.31,5.18,50.94h0Z"/>
  <g>
    <path class="cls-1" d="M310.3,216.74l-2.26.35.49-3.66c.03-.19.27-.23.34-.05l1.43,3.37h0Z"/>
    <polygon class="cls-19" points="311.44 225.2 309.17 225.56 308.04 217.09 310.3 216.74 311.44 225.2"/>
    <path class="cls-19" d="M309.3,214.4l-.43-1.02c-.07-.18-.32-.14-.34.05l-.15,1.11.92-.14h0Z"/>
  </g>
  <g>
    <path class="cls-16" d="M295.38,190.59c-.13,0-.24-.09-.24-.22l-.27-4.97-.95.13c-.13.02-.25-.07-.27-.2-.02-.13.07-.25.2-.27l1.2-.16c.07,0,.13,0,.18.05.05.04.08.1.08.17l.28,5.22c0,.13-.09.24-.22.25h0,0Z"/>
    <path class="cls-16" d="M293.29,184.6l-1.08.15-.26-1.93c-.04-.3.17-.58.47-.61h0c.3-.04.58.17.61.47l.26,1.93Z"/>
    <rect class="cls-6" x="292.14" y="184.67" width="2.31" height="8.05" transform="translate(-22.61 40.94) rotate(-7.69)"/>
  </g>
  <path class="cls-23" d="M285.41,83.14c-2.72,9.87-13.79,58.48-23.29,88.55-3.36-32.73-3.94-86.65-3.94-86.66,3.53,9.41,17.12,7.57,27.22-1.89h0Z"/>
  <path class="cls-25" d="M303.66,257.46c-4.2,0-7.84-3.16-8.33-7.43l-2.62-22.56c0-.08.05-.16.14-.17l27.57-3.19s.08,0,.11.03c.03.03.05.06.06.1l2.62,22.56c.26,2.23-.37,4.42-1.76,6.18s-3.39,2.87-5.61,3.13l-.02-.15.02.15-11.19,1.3c-.33.04-.65.06-.97.06h0ZM293.03,227.59l2.6,22.4c.25,2.15,1.32,4.07,3.01,5.41,1.69,1.34,3.81,1.94,5.95,1.69l11.19-1.3c2.15-.25,4.07-1.32,5.41-3.01,1.34-1.69,1.95-3.81,1.69-5.95l-2.6-22.4-27.26,3.16h0Z"/>
  <path class="cls-25" d="M296.89,232.8c-.08,0-.14-.06-.15-.14,0-.08.05-.16.14-.17l20.19-2.34c.08,0,.16.05.17.14s-.05.16-.14.17l-20.19,2.34h-.02Z"/>
  <path class="cls-25" d="M260.66,177.53c-.08,0-.15-.05-.18-.13l-16.7-47.52c-.02-.06,0-.13.03-.18l7.8-10.67-8.42-14.61c-.04-.07-.03-.15.01-.21l13.36-17.78c.06-.08.18-.1.27-.04.08.07.1.18.04.27l-13.28,17.68,8.42,14.61c.04.07.03.15,0,.21l-7.82,10.69,16.66,47.42c.04.1-.02.21-.12.24-.02,0-.04,0-.06,0h0Z"/>
  <path class="cls-25" d="M263.67,177.53s-.07,0-.09-.03c-.09-.05-.12-.17-.07-.26l26.7-47.09-7.39-11.09c-.05-.07-.04-.16,0-.23l11.86-14.58-7.96-18.71c-.04-.1,0-.21.1-.25.1-.04.21,0,.25.1l8,18.81c.03.07.02.14-.03.2l-11.85,14.56,7.38,11.07c.04.06.04.14,0,.2l-26.76,47.19c-.04.06-.1.1-.17.1h0Z"/>
  <path class="cls-25" d="M262.42,276.03c-.1,0-.19-.08-.19-.19l-1.76-75.73c0-.11.08-.19.19-.2.11,0,.19.08.2.19l1.76,75.73c0,.1-.08.19-.19.2h0Z"/>
  <path class="cls-25" d="M267.67,218.09c-1.71,0-3.1-1.39-3.1-3.1s1.39-3.1,3.1-3.1,3.1,1.39,3.1,3.1-1.39,3.1-3.1,3.1ZM267.67,212.26c-1.5,0-2.72,1.22-2.72,2.72s1.22,2.72,2.72,2.72,2.72-1.22,2.72-2.72-1.22-2.72-2.72-2.72Z"/>
  <path class="cls-25" d="M268.23,241.08c-1.71,0-3.1-1.39-3.1-3.1s1.39-3.1,3.1-3.1,3.1,1.39,3.1,3.1-1.39,3.1-3.1,3.1ZM268.23,235.25c-1.5,0-2.72,1.22-2.72,2.72s1.22,2.72,2.72,2.72,2.72-1.22,2.72-2.72-1.22-2.72-2.72-2.72Z"/>
  <path class="cls-25" d="M253.89,225.56c-1.46,0-2.65-1.19-2.65-2.65s1.19-2.65,2.65-2.65,2.65,1.19,2.65,2.65-1.19,2.65-2.65,2.65ZM253.89,220.58c-1.28,0-2.32,1.04-2.32,2.32s1.04,2.33,2.32,2.33,2.33-1.04,2.33-2.33-1.04-2.32-2.33-2.32Z"/>
  <path class="cls-25" d="M234.21,229.1s-.07-.05-.11-.05l-9.44-.44c0,.1,0,.2,0,.31l9.28.43-1.05,22.53c-.1,2.16-1.04,4.15-2.63,5.6-1.6,1.45-3.66,2.2-5.82,2.1l-.62-.03c0,.1,0,.21,0,.31l.62.03c2.24.1,4.39-.67,6.04-2.18,1.66-1.51,2.63-3.57,2.73-5.82l1.06-22.68s-.01-.08-.04-.11h0Z"/>
  <path class="cls-25" d="M229.97,234.64c0,.08-.07.15-.16.15l-5.3-.25c0-.1,0-.2,0-.31l5.31.25c.09,0,.15.08.15.16h0Z"/>
  <g>
    <path class="cls-6" d="M283.25,165.02c-.08.02-.17,0-.25-.05l-2.27-1.37c-.08-.05-.15-.14-.17-.24l-1.24-6.34c-.04-.19.09-.38.28-.42s.38.09.42.28l1.21,6.18,2.13,1.29c.17.1.22.32.12.49-.06.09-.14.15-.24.17h0Z"/>
    <path class="cls-5" d="M297.89,165.14c-.16.03-.32-.05-.39-.2-.08-.18,0-.39.17-.47l2.74-1.29.55-6.13c.02-.2.19-.34.39-.32.2.02.34.19.32.39l-.57,6.33c-.01.13-.09.24-.2.29l-2.92,1.38s-.06.02-.08.03h0Z"/>
    <path class="cls-25" d="M301.45,157.78s-.1.01-.16.01c-.39,0-.71-.34-.7-.73,0-.19.37-18.46-6.29-24.34-1.67-1.47-3.59-2.01-5.87-1.67-2.52.38-4.53,1.63-5.98,3.71-5.05,7.24-2.04,22.21-2.01,22.36.08.38-.17.76-.55.84h0c-.38.07-.75-.17-.84-.56-.13-.64-3.16-15.71,2.24-23.46,1.68-2.42,4.01-3.86,6.93-4.31,2.69-.41,5.05.27,7.03,2.01,7.17,6.31,6.79,24.66,6.78,25.44,0,.34-.25.62-.58.68h0Z"/>
    <path class="cls-25" d="M286.28,165.93c-.25.74-1.22,1.08-2.16.76s-1.5-1.19-1.24-1.93c.25-.74,1.22-1.08,2.16-.76s1.5,1.19,1.24,1.93Z"/>
    <path class="cls-25" d="M298.36,164.74c.2.76-.41,1.58-1.38,1.84-.96.26-1.9-.15-2.1-.91s.41-1.58,1.38-1.84c.96-.26,1.9.15,2.1.91Z"/>
    <path class="cls-25" d="M289.85,130.77c-.07.01-.15.02-.22,0-.39-.05-.67-.4-.62-.79.04-.31,3.52-30.71-3.74-46.47-.17-.36,0-.78.35-.95s.78,0,.95.35c3.12,6.78,4.72,16.8,4.75,29.77.02,9.63-.88,17.38-.89,17.46-.04.32-.28.56-.57.61h0Z"/>
    <path class="cls-6" d="M293.89,132.72c-.33.07-.68.01-.99-.17-3.24-1.88-6.53-.2-6.67-.13-.7.36-1.55.1-1.92-.6-.36-.69-.11-1.55.59-1.92.2-.1,4.8-2.5,9.44.18.68.39.91,1.27.52,1.95-.21.37-.57.61-.96.69h0Z"/>
  </g>
  <g>
    <path class="cls-25" d="M245.81,149.53c-.34.1-.71-.07-.85-.41-.13-.33-3.27-8.27-.35-31.98,2.38-19.4,12.1-31.83,12.2-31.95.24-.31.86-.95,1.16-.71.31.24.26.57.02.87-.09.12-9.65,12.97-11.98,31.96-2.86,23.23.23,31.2.26,31.28.15.36-.03.77-.39.92-.02,0-.05.02-.07.03h0Z"/>
    <path class="cls-25" d="M250.52,143.58c.9,3.15-.91,6.43-4.06,7.33-3.15.9-6.43-.91-7.33-4.06-.9-3.15.91-6.43,4.06-7.33,3.15-.9,6.43.91,7.33,4.06h0Z"/>
    <path class="cls-6" d="M248.76,144.08c.62,2.17-.63,4.44-2.8,5.07s-4.44-.63-5.07-2.8c-.62-2.17.63-4.44,2.8-5.07,2.17-.62,4.44.63,5.07,2.8Z"/>
  </g>
  <polygon class="cls-18" points="226.79 187.55 220.54 189.36 222.56 202.27 230.79 201.39 226.79 187.55"/>
  <g id="mother_and_child" data-name="mother and child">
    <path class="cls-24" d="M51.92,197.71s-14.4,24.79-16.25,39.61c-1.85,14.82,3.36,42.68,3.36,42.68h81.88s-1.86-27.62-4.29-43.63c-1.86-12.28-4.6-25.36-9-38.66h-55.7Z"/>
    <path class="cls-25" d="M42.06,276.59c-.1,0-.19-.07-.2-.17-.04-.25-3.84-25.09-2.43-38.2,1.55-14.41,14.31-35.18,14.43-35.39.06-.09.18-.12.28-.07.09.06.12.18.07.28-.13.21-12.84,20.9-14.37,35.22-1.41,13.06,2.39,37.84,2.43,38.09.02.11-.06.21-.17.23h-.03Z"/>
    <path class="cls-15" d="M20.1,165.81s-9.1,20.21-9.1,24.75,18.11,39.1,24.25,41.47c3.61,1.39,8.5-1.55,9.91-.17,1.41,1.38,4.31,5.84,6.76,6.31,1.8.34,2.43-.58,2.43-.58l-4.05-5.73s4.66,5.55,8.16,5.65c1.43.04,2.39-.64,2.39-.64l-1.67-1.82s1.53.79,2.98.5c1.08-.21,1.67-.93,1.67-.93l-8.59-9.32s5.83,4.94,8.59,5.19c1.66.15,2.66-.93,2.66-.93,0,0-8.39-8.12-10.59-8.59-2.2-.47-7.67-.42-7.67-.42,0,0,3.95-.61,5.02-1.98.9-1.15.78-2.86.78-2.86l-15.41,3.61s-8.96-25.79-9.09-27.19c-.13-1.4,8.54-18.64,8.54-18.64l-17.96-7.68h0Z"/>
    <path class="cls-14" d="M116.11,124.47c7.99,2.64,23.4,33.99,23.4,33.99l-19.33,22.19-10.13-15.62-4.19-26.38,10.25-14.19h0Z"/>
    <path class="cls-14" d="M10.99,178.76l24.27,11.69,13.61-22.21-10.11-43.22c-6.52,4.25-27.78,53.74-27.78,53.74h0Z"/>
    <path class="cls-14" d="M38.77,125.02l26.5-9.15,34.27,2.28,16.57,6.32-5.28,12.94s7.76,14.08,5.8,28.78-4.58,31.63-9.96,33.29c-5.38,1.66-15.78,3.04-24.88,2.97-8.4-.07-26.56-1.74-29.87-4.75-1.94-1.76-6.13-26.44-9.26-46.56-2.21-14.19-3.89-26.12-3.89-26.12h0Z"/>
    <path class="cls-9" d="M78.06,94.35s-14.96-21.81,3.25-37.3c14.29-12.15,44.88-2.87,38.38,22.56-4.77,18.65-41.63,14.73-41.63,14.73Z"/>
    <path class="cls-15" d="M80.61,86.93l-8.51,26.56-6.83,2.38s.78,4.59,10.49,7.2c4.95,1.33,12.12,22.11,15.76,21.96,2.83-.11,1.84-20.68,4.19-21.58,5.22-2,3.83-5.31,3.83-5.31l-4.14-1.76.31-8.8-15.1-20.66h0Z"/>
    <path class="cls-20" d="M95.71,107.59l-.2,5.65s-9.94-.38-11.7-11.84c-1.59-10.38,11.9,6.19,11.9,6.19Z"/>
    <path class="cls-15" d="M81.01,83.16s-2.96,16.95,6,23.19c8.97,6.25,22.26,2.07,29.82-16.98,7.56-19.05-1.55-33.03-16.88-33.44-15.32-.41-18.49,22.05-18.95,27.23h0Z"/>
    <path class="cls-25" d="M95.54,74.62c-.23,1.95,7.92,3.82,8.15,2.1s-7.92-4.05-8.15-2.1Z"/>
    <path class="cls-25" d="M110.45,79.39c-.49,1.69,5.7,3.9,6.15,2.41.45-1.49-5.66-4.1-6.15-2.41Z"/>
    <path class="cls-20" d="M93.71,95.45c1.58-1.48,6.55,2.68,5.1,4.12-2.9,2.9-7.36-2-5.1-4.12Z"/>
    <path class="cls-9" d="M89.7,55.92c9.65-5.75,24.66,1.26,28.46,8.35,3.8,7.09,1.08,16.82,1.08,16.82,0,0,1.32-7.4-6.29-12.69-9.96-6.93-20.15-2.32-20.15-2.32,0,0-2.42,10.6-9.11,13.43-7.85,3.32-3.64-17.85,6.01-23.6h0Z"/>
    <ellipse class="cls-15" cx="80.71" cy="80.58" rx="5.49" ry="6.37" transform="translate(-21.89 30.77) rotate(-19.06)"/>
    <path class="cls-25" d="M105.64,85.3c-.18.72-.33,1.43-.42,2.15s-.13,1.43-.09,2.14c.05.71.17,1.41.42,2.06.24.65.61,1.25,1.08,1.76l.27.28-.34.15c-.32.14-.64.27-.97.4-.33.13-.65.26-.98.39-.65.25-1.31.49-1.98.71.6-.36,1.22-.7,1.84-1.03.31-.17.62-.33.93-.48s.62-.32.94-.47l-.07.43c-.57-.53-.99-1.21-1.27-1.93-.26-.73-.4-1.49-.4-2.24-.01-.76.09-1.51.27-2.23.18-.73.45-1.42.78-2.08h0Z"/>
    <path class="cls-25" d="M94.92,82.28c.28-.5.68-.94,1.13-1.31.45-.37.97-.68,1.55-.86.58-.18,1.22-.21,1.81-.02.59.17,1.08.56,1.42,1.02-.51-.28-1.01-.5-1.53-.56-.51-.08-1.03,0-1.53.14-.5.15-.99.39-1.46.66-.47.28-.93.6-1.4.93h0Z"/>
    <path class="cls-25" d="M100.45,83.57c-.26,1.12-1.06,1.88-1.78,1.71-.73-.17-1.11-1.21-.85-2.32.26-1.12,1.06-1.88,1.78-1.71.73.17,1.11,1.21.85,2.32Z"/>
    <path class="cls-25" d="M107.89,85.15c.32-.43.74-.77,1.19-1.05.46-.28.97-.49,1.53-.57.55-.08,1.15-.02,1.66.23.51.24.91.66,1.14,1.14-.43-.31-.86-.58-1.31-.7-.46-.14-.93-.14-1.4-.08-.47.07-.94.21-1.41.4-.47.19-.93.4-1.4.64h0Z"/>
    <path class="cls-25" d="M112.85,87.09c-.26,1.11-1.06,1.87-1.79,1.69s-1.09-1.21-.83-2.32c.26-1.11,1.06-1.87,1.79-1.69s1.09,1.21.83,2.32Z"/>
    <path class="cls-25" d="M93.59,93.57c.08.83.29,1.63.63,2.35.34.73.83,1.38,1.44,1.87.61.51,1.33.87,2.1,1.13.77.26,1.58.41,2.41.52-.83.08-1.68.04-2.51-.17l-.31-.08-.3-.1c-.2-.06-.4-.16-.6-.24-.39-.19-.75-.42-1.09-.7-.67-.56-1.18-1.29-1.48-2.1-.3-.8-.41-1.67-.29-2.5h0Z"/>
    <path class="cls-25" d="M79.57,80.69c.45.03.9.07,1.35.18.45.1.88.26,1.28.49.39.23.73.53,1.02.86.28.33.52.68.74,1.03l-.58.16c-.07-.62-.24-1.24-.44-1.84-.1-.3-.22-.6-.36-.88-.07-.14-.14-.29-.21-.43l-.24-.42c-.34-.55-.74-1.06-1.24-1.49-.5-.43-1.12-.77-1.83-.93.74,0,1.48.28,2.07.68.61.4,1.09.92,1.49,1.49l.28.43c.09.15.17.3.25.45.15.31.28.61.4.93.23.63.38,1.29.45,1.96h0c.01.15-.11.29-.28.3-.13.01-.25-.05-.3-.14-.19-.35-.4-.69-.64-1-.23-.32-.51-.61-.84-.84-.64-.49-1.51-.74-2.37-.97h0Z"/>
    <path class="cls-22" d="M81.31,84.97"/>
    <polygon class="cls-25" points="128.74 230.29 127.49 279.99 186.32 279.99 183.86 228.27 128.74 230.29"/>
    <path class="cls-25" d="M151.3,276.59c-.1,0-.19-.07-.2-.18l-3.55-26.44-2.47-1.66c-.09-.06-.12-.19-.06-.28.06-.09.19-.12.28-.06l2.54,1.71s.08.08.09.14l3.56,26.53c.02.11-.06.21-.17.23h-.03,0Z"/>
    <path class="cls-25" d="M183.79,273.07c-.1,0-.2-.08-.2-.19l-2.58-37.82c0-.11.08-.21.19-.21.11,0,.21.08.21.19l2.58,37.82c0,.11-.08.21-.19.21h-.01Z"/>
    <path class="cls-25" d="M176.13,247.05c-4.82,0-7.78-1.93-9.49-3.73-2.26-2.38-2.88-4.99-2.91-5.1-.03-.11.04-.22.15-.24.11-.03.22.04.24.15,0,.03.63,2.62,2.82,4.92,2.89,3.04,7.23,4.18,12.53,3.3.11-.02.21.06.23.17s-.06.21-.17.23c-1.23.2-2.36.29-3.4.29h0Z"/>
    <path class="cls-17" d="M153.2,141.7s14.44-19.17,6.71-31.9c-5.37-8.84-14.24-3.41-14.24-3.41-7.49,2.17-19.6,1.29-21.01,11.81-2.13,15.92,22.26,30.28,28.54,23.5h0Z"/>
    <path class="cls-18" d="M118.2,189.07s-2.9,13.8-2.68,16.94c.22,2.98,17.17-6.16,17.17-6.16l-2.64-8.36-11.86-2.42h0Z"/>
    <path class="cls-12" d="M137.08,157.85s-11.31,5.45-12.93,7.65c-3.08,4.19-10.16,28.1-10.16,28.1l14.91,4.56-1.32,33.71c19.55,7.47,41.88,4.73,59.03-1.59l-6.81-71.55-19.89-6.01-22.83,5.14h0Z"/>
    <path class="cls-18" d="M177.35,240.95s11.11-28.78,11.03-36.62c-.09-7.83-2.38-28.87-2.38-28.87,0,0-5.9-1.81-10.03.59s-6.69,7.42-6.69,7.42l5.46,21.39-6.07,36.88c.27,4.45.85,14.15.85,14.15l1.7,8.73s1.45,0,2.04-1.19c.7-1.4-.08-7.03-.08-7.03l4.26,9.32s.96.07,1.52-.56c.7-.78.5-1.38.5-1.38,0,0,1.4.51,1.76-1.36.33-1.7-1.67-8.89-1.67-8.89l3.78,5.63s1.19-.34,1.11-1.7-2.96-5.78-2.96-5.78l-4.12-10.75h0Z"/>
    <path class="cls-18" d="M159.91,152.71s-6.9,9.37-16.32,9.5c-7.39.1-6.52-4.36-6.52-4.36l2.89-2.17-.27-11.31,10.59-13.18s4.44,16.34,6.39,20.42l3.24,1.1h0Z"/>
    <path class="cls-20" d="M146.39,139.63s-.21,7.89-6.56,10.6l-.13-4.12h.18s6.51-6.48,6.51-6.48h0Z"/>
    <path class="cls-18" d="M122.75,118.29s-6.09,30.02,11.19,30.79c13.12.58,16.66-17.91,16.66-17.91,2.2-5.53-.55-22.57-12.26-22.38-11.71.2-15.13,7.09-15.59,9.49h0Z"/>
    <path class="cls-20" d="M137.12,139.31c1.72,1.18-1.4,5.72-4.43,2.91-2.03-1.87,3.08-3.83,4.43-2.91Z"/>
    <path class="cls-17" d="M152.93,126.91c-1.14,4.06-4.7.26-7.06-4.89-1.96-4.28-1.51-7.3-1.51-7.3,0,0-8.84,3.51-18.16,3.88-6.43.26-13.31-3.15-10.44-8.81,2.87-5.66,12.98-9.28,21.86-8.14,12.69,1.63,15.24,8.56,16.71,13.31,1.64,5.28-1.4,11.94-1.4,11.94h0Z"/>
    <path class="cls-25" d="M123.36,127.67c.24-.44.59-.81,1.01-1.1.42-.28.95-.49,1.53-.44.58.06,1.08.43,1.37.86.3.43.46.92.5,1.41-.3-.4-.57-.78-.89-1.09-.31-.31-.67-.5-1.05-.55-.38-.04-.8.06-1.22.24-.42.17-.82.41-1.25.66h0Z"/>
    <path class="cls-25" d="M127.32,129.02c-.17.93-.81,1.6-1.43,1.49-.62-.11-.99-.96-.82-1.89.17-.93.81-1.6,1.43-1.49.62.11.99.96.82,1.89Z"/>
    <path class="cls-25" d="M133.98,127.43c.31-.46.74-.84,1.23-1.13.49-.28,1.07-.48,1.69-.44.31.02.61.11.88.26.27.15.5.35.69.58.37.46.58,1,.66,1.55-.33-.45-.64-.87-1.02-1.2-.37-.33-.8-.52-1.26-.55-.46-.04-.95.07-1.43.25-.48.18-.96.42-1.44.68h0Z"/>
    <path class="cls-25" d="M138.54,129.04c-.19,1.02-.88,1.75-1.56,1.63-.68-.12-1.08-1.05-.9-2.07.19-1.02.88-1.75,1.56-1.63.68.12,1.08,1.05.9,2.07Z"/>
    <path class="cls-25" d="M130.11,129.6c.02.59,0,1.17-.05,1.76-.05.59-.15,1.17-.32,1.75-.16.58-.42,1.13-.72,1.65-.31.51-.68.99-1.09,1.42l-.02-.37c.38.37.76.74,1.13,1.13.37.38.73.78,1.07,1.19-.45-.29-.88-.61-1.3-.93-.43-.32-.84-.65-1.25-1l-.19-.16.17-.21c.35-.44.69-.89.97-1.38.29-.48.52-.99.72-1.51.19-.53.34-1.08.47-1.64.13-.56.26-1.13.41-1.69h0Z"/>
    <path class="cls-25" d="M133.69,121.15c-.2,1.76,7.08,3.36,7.28,1.81.2-1.55-7.08-3.57-7.28-1.81Z"/>
    <path class="cls-25" d="M120.48,122.77c.59,1.68,7.84-.06,7.34-1.55-.49-1.49-7.93-.13-7.34,1.55Z"/>
    <ellipse class="cls-18" cx="152.41" cy="129.15" rx="5.2" ry="4.49" transform="translate(-41.18 178.44) rotate(-54.56)"/>
    <path class="cls-25" d="M153.85,129.21c-.31-.14-.64-.18-.97-.18-.32,0-.64.07-.93.18-.3.11-.57.27-.8.48-.24.2-.44.45-.61.72-.08.13-.25.17-.38.08-.1-.07-.15-.2-.11-.32h0c.14-.51.3-1.02.53-1.49.11-.24.24-.47.39-.69.15-.22.32-.43.5-.62.37-.38.85-.67,1.36-.79.51-.12,1.03-.07,1.5.08-.49,0-.97.06-1.4.24-.43.18-.79.47-1.09.83-.15.18-.29.37-.41.58-.13.2-.24.42-.34.63-.2.44-.37.9-.51,1.38l-.49-.24c.21-.31.47-.58.77-.8.3-.21.64-.37.99-.46.35-.08.71-.1,1.06-.04.34.06.68.19.95.42h0Z"/>
    <path class="cls-12" d="M186.61,175.52s1.62-1.46,1.56-4.02c-.06-2.3-1.56-2.29-1.56-2.29,0,0,.86-2.25,0-3.81-.87-1.59-2.52-1.04-2.52-1.04l-4.29-5.64s-10.08,12.03-11.45,19.16c-.86,4.51,1.15,6.52,1.15,6.52l17.11-8.87h0Z"/>
    <path class="cls-25" d="M169.5,184.6s-.05,0-.08-.02c-.08-.03-2.01-.85-2.49-2.55-.46-1.66-.02-3.38,0-3.45.03-.11.14-.17.25-.14s.17.14.14.25c0,.02-.43,1.68,0,3.24.42,1.51,2.23,2.28,2.25,2.29.1.04.15.16.11.26-.03.08-.11.12-.19.12h0Z"/>
    <path class="cls-25" d="M171.37,177.6s-.1-.02-.14-.05c-.08-.07-.09-.2-.01-.29,3.67-4.01,8.46-6.6,14.25-7.67.11-.02.21.05.24.16.02.11-.05.21-.16.24-5.7,1.06-10.42,3.6-14.02,7.55-.04.04-.09.07-.15.07Z"/>
    <path class="cls-25" d="M168.91,174.49s-.09-.02-.13-.05c-.08-.07-.1-.2-.03-.29,2.87-3.42,8.35-7.75,12.57-9.11.11-.03.22.03.25.13.03.11-.03.22-.13.25-4.15,1.33-9.56,5.61-12.38,8.98-.04.05-.1.07-.16.07h0Z"/>
    <path class="cls-15" d="M163.93,153.86s1.49-8.82,3.81-8.82,1.21,7.71,1.21,7.71c0,0,2.88-3.25,4.18-2.88s1.39,1.86,1.39,1.86c0,0,1.95-1.49,3.07-1.12s.93,2.69.93,2.69c0,0,2.23-1.21,3.06-.56s.74,2.69.74,2.69c0,0,1.35-.68,2.32,0,1.86,1.3-1.39,11.24-3.43,10.31-2.04-.93-.75-4.27-.75-4.27,0,0-2.16,3.9-3.46,2.74s-.35-5.16-.35-5.16c0,0-2.04,4.55-3.34,3.62-1.3-.93-.37-5.3-.37-5.3,0,0-1.77,5.3-3.34,3.62-1.58-1.67-.74-5.59-.74-5.59l-4.92-1.56h0Z"/>
    <path class="cls-25" d="M131.32,142.21c.72-.02,1.42-.12,2.09-.31.67-.19,1.3-.46,1.86-.85.56-.38,1.03-.88,1.42-1.45.38-.58.68-1.21.94-1.89-.05.72-.25,1.44-.59,2.09s-.86,1.24-1.47,1.67c-.62.42-1.33.7-2.06.81-.73.12-1.47.1-2.17-.08h0Z"/>
    <path class="cls-20" d="M172.86,157.77c.04-.53.12-1.05.22-1.56.1-.51.22-1.02.36-1.53.14-.5.3-1,.47-1.5.18-.49.37-.98.61-1.46-.04.53-.12,1.05-.22,1.56-.1.51-.22,1.02-.36,1.53-.14.5-.3,1-.47,1.5-.18.49-.37.98-.61,1.46Z"/>
    <path class="cls-20" d="M176.58,159.22c.06-.53.17-1.03.29-1.54s.27-1,.43-1.5c.16-.49.34-.98.54-1.46.2-.48.41-.96.67-1.41-.06.53-.17,1.03-.29,1.54s-.27,1-.43,1.5c-.16.49-.34.98-.54,1.46-.2.48-.41.96-.67,1.41h0Z"/>
    <path class="cls-20" d="M180.46,161.48c.05-.53.16-1.05.27-1.57.12-.51.25-1.02.41-1.53.15-.5.33-1,.52-1.49.19-.49.4-.98.65-1.45-.05.53-.16,1.05-.27,1.57-.12.51-.25,1.02-.41,1.53-.15.5-.33,1-.52,1.49-.19.49-.4.98-.65,1.45Z"/>
    <path class="cls-20" d="M51.52,221.95c-.22.74-.66,1.39-1.11,2-.47.61-.98,1.17-1.54,1.69-.27.26-.57.51-.86.75-.3.24-.6.47-.9.69-.31.22-.63.43-.95.63-.33.19-.66.38-1,.55.25-.29.53-.55.8-.81.27-.26.54-.53.82-.78.27-.26.55-.51.82-.76.27-.26.55-.5.82-.76.55-.51,1.08-1.02,1.6-1.55.52-.53,1.04-1.06,1.51-1.66h0Z"/>
    <path class="cls-20" d="M59.18,235.05c-.59-.47-1.12-1-1.64-1.53-.52-.53-1.01-1.08-1.5-1.65s-.94-1.14-1.39-1.74c-.44-.6-.87-1.21-1.24-1.87.59.47,1.12.99,1.64,1.53.52.53,1.01,1.08,1.5,1.65.48.57.94,1.14,1.38,1.74.44.6.87,1.21,1.24,1.87h0Z"/>
    <path class="cls-20" d="M52.54,234.18c-.41-.24-.77-.54-1.11-.84-.34-.31-.67-.63-.97-.97s-.6-.69-.86-1.07-.52-.76-.72-1.2c.41.24.77.53,1.12.84.34.31.67.63.97.97.31.34.6.69.86,1.07s.52.76.72,1.19h0Z"/>
    <path class="cls-20" d="M59.02,228.14c-.4-.12-.76-.3-1.1-.5-.34-.2-.67-.41-.99-.65-.32-.23-.61-.49-.9-.77-.28-.28-.56-.57-.78-.92.4.12.76.3,1.11.49.34.2.67.41.99.65s.61.49.9.77c.28.28.56.57.79.92h0Z"/>
    <path class="cls-18" d="M120.73,201.69l32.75-21.92s10.02-8.98,11.09-9.15c1.07-.17,9.82-.81,9.82-.81,0,0,.54,1.19-1.57,2.07-2.11.88-4.72.85-4.72.85l9.27,1.08s0,1.28-.68,1.74c-.55.38-1.2.29-1.2.29,0,0,.86,1.2-.06,1.79-.74.48-1.54.37-1.54.37,0,0,.47,1.18-.83,1.74-1.24.54-5.22-.59-6.37.61-1.14,1.19-2.82,3.48-5.63,4.45-2.82.97-3.96.88-3.96.88,0,0-21.3,27.81-30.46,29.22-9.15,1.41-11.27-6.42-11.09-9.33.18-2.9,5.19-3.87,5.19-3.87h0Z"/>
    <path class="cls-18" d="M168.67,241.74l-3.3,12.73s1.22.37,1.93-.37,1.89-3.7,1.89-3.7l-.52-8.67Z"/>
    <path class="cls-20" d="M175.47,175.84c-.62,0-1.24-.05-1.86-.1-.31-.03-.61-.07-.92-.1l-.92-.12c-.61-.08-1.22-.19-1.83-.3-.61-.12-1.21-.25-1.81-.42.62,0,1.24.05,1.86.1.61.06,1.23.13,1.84.21l.91.14c.31.06.61.1.91.16.61.12,1.21.24,1.81.42h0Z"/>
    <path class="cls-20" d="M173.87,178c-.58,0-1.14-.06-1.71-.11-.28-.03-.57-.07-.85-.1l-.85-.12c-.56-.09-1.12-.2-1.68-.31-.56-.12-1.11-.25-1.66-.43.58,0,1.14.05,1.71.11s1.13.14,1.69.23l.84.15c.28.06.56.1.84.17.56.12,1.11.25,1.66.43h0Z"/>
    <path class="cls-25" d="M47.38,179.6c-.1,0-.18-.07-.2-.17l-3.26-19.04c-.02-.11.06-.21.17-.23s.21.06.23.17l3.26,19.04c.02.11-.06.21-.17.23h-.04Z"/>
    <path class="cls-25" d="M115.53,174.19s-.03,0-.05,0c-.11-.03-.18-.14-.15-.24.03-.11,2.65-11.21,1.12-17.63-.03-.11.04-.22.15-.24s.22.04.24.15c1.56,6.52-1.09,17.71-1.12,17.82-.02.09-.1.16-.2.16h0Z"/>
    <path class="cls-25" d="M76.25,198.37h-.03c-4.89-.64-9.11-1.86-12.54-3.63-2.75-1.42-5.01-3.2-6.7-5.29-2.89-3.57-3.14-6.75-3.15-6.88,0-.11.08-.21.19-.21.11,0,.21.08.21.19,0,.03.25,3.21,3.08,6.67,2.61,3.21,8.02,7.33,18.96,8.75.11.01.19.12.18.23-.01.1-.1.18-.2.18h0Z"/>
    <path class="cls-25" d="M79.06,195.66h-.02c-5.51-.43-9.56-2.55-11.98-4.24-2.63-1.84-3.95-3.55-4-3.63-.07-.09-.05-.21.04-.28s.21-.05.28.04c.05.07,5.34,6.89,15.69,7.71.11,0,.2.11.19.22,0,.11-.1.19-.2.19Z"/>
    <path class="cls-25" d="M130.12,194.74h-.01c-.11,0-.2-.1-.19-.21l1.2-18.69c0-.11.1-.2.21-.19.11,0,.2.1.19.21l-1.2,18.69c0,.11-.09.19-.2.19Z"/>
    <path class="cls-25" d="M150.3,230.31c-.1,0-.19-.08-.2-.19,0-.11.07-.21.18-.22.04,0,4.11-.39,8.59-2.31,4.12-1.76,9.45-5.2,11.43-11.61.03-.11.15-.17.25-.13.11.03.17.15.13.25-2.03,6.57-7.47,10.08-11.67,11.87-4.54,1.94-8.66,2.33-8.7,2.33h-.02,0Z"/>
    <path class="cls-25" d="M148.48,228.47c-.1,0-.18-.07-.2-.17-.02-.11.06-.21.17-.23.09-.02,9.29-1.7,11.77-7.87.04-.1.16-.15.26-.11.1.04.15.16.11.26-1.35,3.34-4.56,5.37-7.03,6.49-2.65,1.2-5.03,1.63-5.05,1.63h-.04Z"/>
    <path class="cls-20" d="M175.78,255.36c.38.67.73,1.35,1.06,2.05.17.34.33.69.49,1.04l.47,1.05.45,1.06c.14.35.29.71.43,1.07.28.72.54,1.43.77,2.17-.38-.67-.73-1.35-1.06-2.05-.17-.34-.33-.69-.49-1.04l-.47-1.05-.45-1.06c-.14-.35-.29-.71-.43-1.07-.28-.72-.54-1.43-.77-2.17h0Z"/>
    <path class="cls-20" d="M173.18,256.41c.36.58.68,1.18.99,1.78.16.3.3.61.45.91l.43.92.41.93c.13.31.27.62.39.94.25.63.49,1.26.7,1.91-.36-.58-.68-1.18-.99-1.78-.16-.3-.3-.61-.45-.91l-.43-.92-.41-.93c-.13-.31-.27-.62-.39-.94-.25-.63-.49-1.26-.7-1.91h0Z"/>
    <path class="cls-20" d="M169.19,250.41c-.08-.3-.13-.59-.16-.89-.03-.3-.04-.59-.04-.89s.01-.59.04-.89c.03-.3.07-.59.16-.89.08.3.13.59.16.89.03.3.04.59.04.89s-.01.59-.04.89c-.03.3-.07.59-.16.89Z"/>
    <path class="cls-20" d="M183.33,259.18c-.38-.42-.74-.87-1.07-1.32-.17-.22-.34-.46-.5-.69l-.48-.7c-.32-.47-.62-.95-.91-1.43-.29-.48-.57-.98-.81-1.5.38.42.74.87,1.08,1.32.34.45.67.91.98,1.38l.46.71c.15.24.3.48.45.72.29.48.57.98.81,1.5h0Z"/>
  </g>
  <path class="cls-8" d="M221.78,188.94l1.54,14.34s-.09,1-1.15,1.21c-1.06.21-1.42-1.33-1.42-1.33,0,0-5.45.68-10.17.89-4.71.21-16.7-10.74-16.7-10.74,0,0-11.61,1.62-13.83,0-1.86-1.36-1.4-2.55-1.4-2.55l13.46-2.31s-11.38-.62-13.46-1.86c-2.23-1.33-1.75-4.13-1.75-4.13,0,0-1.31-.95-1.51-2.21s.07-2.3.07-2.3l4.6-.03s-1.41-.36-1.96-1.96c-.39-1.13-.25-2.43-.25-2.43,0,0,19.36,1.07,21.73,2.2,2.37,1.13,5.01,4.2,5.01,4.2,0,0-1.28-2.15-.41-4.41.84-2.18,2.35-1.98,2.35-1.98,0,0,3.25,10.08,4.28,12.34,1.03,2.26,2.83,4.34,2.83,4.34l5.31-1.37s.22-1.31,1.4-1.4c1.47-.1,1.44,1.5,1.44,1.5h0Z"/>
  <g>
    <path class="cls-28" d="M317.58,94.98s11.48,5.81,11.26,21.52c-.22,15.71-22.26,67.71-31.91,73.38-9.65,5.67-65.5,21.66-65.5,21.66l-6.71-30.12,52.8-17.66s22.96-63.5,40.07-68.78h0Z"/>
    <path class="cls-25" d="M238.76,205.26c-.07,0-.13-.05-.15-.13l-5.37-21.92c-.02-.09.03-.19.11-.21.08-.03.17.03.19.12l5.37,21.92c.02.09-.03.19-.11.21-.01,0-.03,0-.04,0h0Z"/>
    <path class="cls-25" d="M233.39,204.32c-1.16,0-2.1-1.05-2.1-2.35s.94-2.35,2.1-2.35,2.1,1.05,2.1,2.35-.94,2.35-2.1,2.35ZM233.39,199.98c-.99,0-1.79.89-1.79,1.99s.8,1.99,1.79,1.99,1.79-.89,1.79-1.99-.8-1.99-1.79-1.99h0Z"/>
    <path class="cls-25" d="M226.65,180.95c-.07,0-.13-.05-.15-.12-.03-.09.02-.19.1-.22l50.8-16.99c.8-2.08,17.26-44.75,26.59-55.45.06-.07.16-.07.22,0,.06.07.06.18,0,.25-9.48,10.86-26.39,54.97-26.56,55.42-.02.05-.06.08-.1.1l-50.87,17.01s-.03,0-.05,0h0Z"/>
    <path class="cls-25" d="M238.93,209.54c-.07,0-.13-.05-.15-.13-.02-.09.03-.19.11-.21.51-.15,51.18-14.64,57.95-19.46,6.76-4.8,12.21-17.47,12.26-17.6.04-.09.13-.12.21-.08s.11.15.07.23c-.06.13-5.55,12.89-12.38,17.75-6.82,4.84-57.53,19.35-58.05,19.5-.01,0-.03,0-.04,0h0Z"/>
  </g>
  <path class="cls-13" d="M180.04,177.92c1.25-.09,2.5-.13,3.76-.15.62-.01,1.25,0,1.88,0l1.88.02,1.88.06c.62.03,1.25.05,1.87.09,1.25.07,2.5.16,3.75.31-1.25.09-2.5.13-3.76.15-.62.01-1.25,0-1.88,0l-1.88-.03-1.88-.06c-.62-.03-1.25-.05-1.87-.09-1.25-.07-2.5-.16-3.75-.31h0Z"/>
  <path class="cls-13" d="M176.89,182.46c1.41-.06,2.83-.06,4.24-.04.71,0,1.41.03,2.11.04l2.11.08,2.11.11c.7.05,1.41.08,2.11.14,1.41.1,2.81.23,4.22.41-1.41.06-2.83.06-4.24.04-.71,0-1.41-.03-2.11-.05l-2.11-.08-2.11-.11c-.7-.05-1.41-.08-2.11-.14-1.41-.1-2.81-.23-4.22-.41h0Z"/>
  <path class="cls-13" d="M202.17,180.5c-.41.23-.78.51-1.12.82-.34.3-.65.64-.93,1-.56.71-.99,1.51-1.3,2.36-.32.85-.52,1.74-.65,2.64-.13.91-.18,1.83-.21,2.77-.21-.92-.29-1.87-.24-2.82.05-.95.21-1.91.56-2.81.33-.9.84-1.75,1.51-2.45.17-.18.34-.34.52-.5.19-.15.38-.3.58-.43.4-.26.83-.48,1.29-.59h0Z"/>
  <path class="cls-13" d="M219.02,190.45c.25.88.44,1.77.61,2.65.17.89.32,1.78.45,2.68.13.89.24,1.8.32,2.7.08.9.15,1.81.15,2.72-.25-.88-.44-1.77-.61-2.65-.17-.89-.32-1.78-.45-2.68-.13-.89-.23-1.8-.32-2.7-.08-.9-.15-1.81-.15-2.72h0Z"/>
  <path class="cls-2" d="M285.85,22.13c-1.98,2.04-4.16,4.86-3.8,7.35.62,4.27-.19,8.52-.63,12.76-1,9.53.07,19.28,3.12,28.36-.64-.08-1.28-.17-1.92-.25-2.88,4.38-7.12,7.81-9.6,12.43-1.81,3.36-2.59,7.26-2.21,11.06.22,2.26.89,4.55,2.39,6.25,1.35,1.51,3.25,2.41,5.18,3.02,4.03,1.26,8.33,1.36,12.55,1.25,3.85-.09,7.83-.38,11.26-2.13,3.39-1.72,5.96-4.72,8.08-7.87,4.92-7.29,8-16.59,5.19-24.93-1.55-4.6-4.7-8.44-7.45-12.43-4.07-5.92-7.33-12.34-10.57-18.76-2.28-4.52-4.61-9.2-4.98-14.26-.13-1.75-.36-3.99-2.05-4.47-1.17-.33-2.35.48-3.24,1.31-.41.38-.87.83-1.35,1.31h0Z"/>
  <g>
    <path class="cls-18" d="M282.79,56.82s-8.73,18.68-22.75,15.54c-19.14-4.28-12.25-39.07-12.25-39.07l27.43-5.82,7.87,19.45-.31,9.89h0Z"/>
    <path class="cls-4" d="M266.56,60.52c.62.91-.48,2.59-1.84,3.51s-3.42,1.12-3.8.04c-.35-.98.96-2.58,2.36-3.3s3.02-.65,3.28-.26h0Z"/>
    <path class="cls-2" d="M243.99,14.19c-.07.04-.14.07-.21.1-2.37,1.16-5.08,1.98-6.71,4.07-1.63,2.1-1.76,4.99-1.44,7.63.32,2.69,1.1,5.57,3,7.6,2.01,2.14,5.18,2.69,7.99,2.76,6.93.19,13.94-2.03,19.82-5.65,1.68-1.04,3.94-2.64,6.03-2.01,1.14.35,1.95,1.38,2.4,2.48s.61,2.29.89,3.45c1.52,6.18,6.94,10.64,12.54,13.19,0,0,6.31-24.74,3.36-31.05-1.86-3.97-6.61-4.97-10.59-5.04-6.19-.11-13,1.14-18.84-1.49-3.11-1.41-6.13-3.3-9.62-1.87-1.51.62-2.75,1.96-4.06,2.94-1.44,1.08-2.95,2.08-4.56,2.89h0Z"/>
    <path class="cls-18" d="M281.46,45.91c-2.92,2.37-3.52,6.21-1.33,8.57,2.18,2.36,6.32,2.35,9.24-.03,2.92-2.37,3.52-6.21,1.33-8.57-2.18-2.36-6.32-2.35-9.24.03Z"/>
    <path class="cls-25" d="M246.88,40.23c-.11,1.49,5.42.59,6.81-.71,1.62-1.51-6.64-1.63-6.81.71Z"/>
    <path class="cls-25" d="M260.66,39.33c1.53,1.49,10.43,3.75,10.55,1.66s-12.25-3.31-10.55-1.66Z"/>
    <path class="cls-25" d="M248.69,44.47c.12-.5.41-.97.83-1.34.41-.37.99-.62,1.58-.66s1.17.12,1.66.37c.49.25.91.59,1.26.99-.5-.21-.97-.43-1.45-.58-.48-.15-.96-.24-1.43-.21-.47.03-.92.18-1.33.44-.41.26-.78.6-1.12.99h0Z"/>
    <path class="cls-25" d="M252.7,46.06c0,1.13-.72,2.05-1.6,2.05s-1.6-.92-1.6-2.05.72-2.05,1.6-2.05,1.6.92,1.6,2.05Z"/>
    <path class="cls-25" d="M261.55,45.33c.26-.61.75-1.14,1.37-1.51.61-.37,1.38-.56,2.12-.5.74.05,1.44.31,2.05.66.61.35,1.14.8,1.57,1.3-.61-.33-1.19-.66-1.8-.91-.61-.25-1.23-.44-1.87-.48-.63-.05-1.26.06-1.85.32-.58.26-1.12.65-1.6,1.12h0Z"/>
    <path class="cls-25" d="M265.82,47.02c0,1.21-.76,2.19-1.7,2.19s-1.7-.98-1.7-2.18.76-2.19,1.7-2.19,1.7.98,1.7,2.18Z"/>
    <path class="cls-25" d="M256.55,45.84c-.47,1.34-.94,2.68-1.36,4.02-.2.67-.42,1.34-.59,2.02-.17.68-.33,1.36-.41,2.03-.04.34-.07.68-.04,1,0,.16.03.32.07.46.01.08.05.14.07.2.03.07.08.13.12.2.34.54.91.97,1.5,1.34.6.37,1.24.69,1.91.98.66.29,1.34.54,2.04.78-.73-.12-1.44-.3-2.15-.52-.7-.23-1.39-.5-2.04-.86-.65-.35-1.28-.8-1.72-1.43-.05-.08-.12-.15-.16-.25s-.09-.19-.11-.29c-.06-.19-.09-.38-.1-.57-.03-.37,0-.74.03-1.1.19-1.44.63-2.8,1.14-4.13.51-1.33,1.1-2.63,1.8-3.89h0Z"/>
    <path class="cls-25" d="M259.19,63.97c.94-.04,1.86-.2,2.73-.48.21-.08.43-.14.64-.22.2-.09.42-.17.62-.27.2-.11.4-.2.6-.31l.56-.36.14-.09.13-.1.26-.2.26-.2c.08-.07.16-.15.24-.23l.48-.46c.14-.17.28-.34.43-.5l.22-.25.19-.27.39-.54c.24-.37.45-.76.71-1.14-.14.42-.28.85-.46,1.26l-.32.6-.17.3-.2.28c-.13.19-.27.37-.41.56l-.48.51c-.08.08-.16.17-.25.25l-.28.22-.28.22-.14.11-.15.1c-.78.54-1.69.91-2.63,1.13-.93.21-1.92.26-2.85.08h0Z"/>
  </g>
  <path class="cls-25" d="M287.32,50.6c-.48-.08-.97-.16-1.44-.2-.47-.04-.94-.03-1.37.06-.44.08-.84.22-1.22.42-.38.19-.74.41-1.08.65-.11.08-.29.05-.39-.06-.08-.08-.09-.2-.05-.28h0c.36-.59.79-1.13,1.29-1.61.25-.24.52-.47.8-.68.15-.1.29-.21.44-.31l.47-.28c.64-.35,1.35-.63,2.12-.74.77-.12,1.61-.07,2.36.23-.78-.17-1.55-.12-2.25.06-.7.18-1.33.48-1.91.84l-.42.28c-.14.1-.27.2-.4.31-.26.21-.51.43-.75.66-.47.47-.9.97-1.25,1.51l-.44-.34c.37-.23.76-.46,1.19-.64.43-.18.89-.31,1.38-.36s1-.02,1.49.08c.49.09.96.24,1.43.39h0Z"/>
  <path class="cls-2" d="M282.09,57.74c-3.81,2.99-8.08,7.68-6.27,13.2-2.05.05-4.15,1.4-5.4,3.45-2.36,3.9-1.1,8.92,2.38,10.37,2.51,1.05,6.22-.42,8.77-1.56,4.83-2.17,8.41-6.85,7.41-12.62-.38-2.22-1.36-4.26-1.6-6.52-.1-.93-.07-1.89-.27-2.79-.42-1.9-3.06-5.08-5.03-3.53h0Z"/>
</svg>